<?xml version="1.0" standalone="no"?><!DOCTYPE svg PUBLIC "-//W3C//DTD SVG 1.1//EN" "http://www.w3.org/Graphics/SVG/1.1/DTD/svg11.dtd"><svg t="1611040080572" class="icon" viewBox="0 0 1024 1024" version="1.1" xmlns="http://www.w3.org/2000/svg" p-id="12691" xmlns:xlink="http://www.w3.org/1999/xlink" width="200" height="200"><defs><style type="text/css"></style></defs><path d="M192 192m32 0l576 0q32 0 32 32l0 0q0 32-32 32l-576 0q-32 0-32-32l0 0q0-32 32-32Z" fill="#FFFFFF" p-id="12692"></path><path d="M192 512m32 0l576 0q32 0 32 32l0 0q0 32-32 32l-576 0q-32 0-32-32l0 0q0-32 32-32Z" fill="#FFFFFF" p-id="12693"></path><path d="M192 768m32 0l576 0q32 0 32 32l0 0q0 32-32 32l-576 0q-32 0-32-32l0 0q0-32 32-32Z" fill="#FFFFFF" p-id="12694"></path></svg>