<?xml version="1.0" standalone="no"?><!DOCTYPE svg PUBLIC "-//W3C//DTD SVG 1.1//EN" "http://www.w3.org/Graphics/SVG/1.1/DTD/svg11.dtd"><svg t="1611040736587" class="icon" viewBox="0 0 1024 1024" version="1.1" xmlns="http://www.w3.org/2000/svg" p-id="13854" xmlns:xlink="http://www.w3.org/1999/xlink" width="200" height="200"><defs><style type="text/css"></style></defs><path d="M0 725.333333v128a170.666667 170.666667 0 0 0 170.666667 170.666667h682.666666a170.666667 170.666667 0 0 0 170.666667-170.666667V170.666667a170.666667 170.666667 0 0 0-170.666667-170.666667H170.666667a170.666667 170.666667 0 0 0-170.666667 170.666667v128h85.333333V170.666667a85.333333 85.333333 0 0 1 85.333334-85.333334h682.666666a85.333333 85.333333 0 0 1 85.333334 85.333334v682.666666a85.333333 85.333333 0 0 1-85.333334 85.333334H170.666667a85.333333 85.333333 0 0 1-85.333334-85.333334v-128H0z" fill="#FFFFFF" p-id="13855"></path><path d="M0 469.333333h682.666667a42.666667 42.666667 0 0 1 0 85.333334H0v-85.333334z" fill="#FFFFFF" p-id="13856"></path><path d="M490.666667 256l234.666666 234.666667-64 64L426.666667 320z" fill="#FFFFFF" p-id="13857"></path><path d="M490.666667 768l234.666666-234.666667-64-64-234.666666 234.666667z" fill="#FFFFFF" p-id="13858"></path></svg>